:FULLY-SPECIFIED
:FORCE-ALL-JOINTS-BE-3DOF
:DEGREES
476
root 3.65321 16.322 -7.1519 5.17393 60.0229 -6.21044
lfemur -39.1846 -2.10873 -22.1652
ltibia 49.2743 0 0
lfoot -20.2563 0.56795 0
ltoes 16.7499 0 0
rfemur -22.0996 2.28011 9.43828
rtibia 71.071 0 0
rfoot 25.4263 14.964 0
rtoes -27.0971 0 0
lowerback 2.12449 -0.0111189 1.3717
upperback -0.383134 0.0429999 1.21171
thorax -1.58299 0.0167658 0.471633
lowerneck -8.46402 -6.89398 0.45575
upperneck 3.52957 -9.33135 1.45974
head 2.63668 -4.58113 -0.0652447
lclavicle 1.95769e-15 -2.63531e-14 0
lhumerus -48.8182 -27.2545 108.182
lradius 56.0826 0 0
lwrist 5.02169 0 0
lhand -9.2264 -6.04658 0
lfingers 7.12502 0 0
lthumb 16.7275 23.2371 0
rclavicle 1.95769e-15 -2.63531e-14 0
rhumerus -54.9491 2.51262 -83.8354
rradius 62.536 0 0
rwrist 15.0026 0 0
rhand -29.0725 -26.4712 0
rfingers 7.12502 0 0
rthumb -2.42174 -776.437 0
477
root 3.7284 16.341 -7.10752 5.36091 61.1355 -5.63991
lfemur -38.3036 -3.32641 -22.4422
ltibia 48.7943 0 0
lfoot -20.3052 0.66072 0
ltoes 16.8988 0 0
rfemur -24.0532 2.3438 9.13449
rtibia 73.482 0 0
rfoot 24.3727 16.5457 0
rtoes -25.5466 0 0
lowerback 2.28222 -0.026124 1.04304
upperback -0.333723 0.0168387 1.11333
thorax -1.62127 0.00565704 0.555395
lowerneck -8.43167 -7.03543 0.323417
upperneck 3.57953 -9.51322 1.57741
head 2.66017 -4.66884 -0.0154352
lclavicle 2.13383e-14 -2.40529e-14 0
lhumerus -48.931 -27.5431 108.407
lradius 56.3398 0 0
lwrist 5.15338 0 0
lhand -8.22792 -5.51879 0
lfingers 7.12502 0 0
lthumb 17.6895 23.6965 0
rclavicle 2.13383e-14 -2.40529e-14 0
rhumerus -54.6057 3.09377 -84.35
rradius 62.5467 0 0
rwrist 15.5381 0 0
rhand -28.8569 -25.9167 0
rfingers 7.12502 0 0
rthumb -2.2135 -775.885 0
478
root 3.79946 16.3557 -7.0576 5.59136 62.3075 -5.21199
lfemur -37.6217 -4.1257 -22.6089
ltibia 48.392 0 0
lfoot -20.4292 0.253411 0
ltoes 17.1334 0 0
rfemur -26.2232 1.95202 9.29382
rtibia 74.8715 0 0
rfoot 23.5548 14.897 0
rtoes -24.3711 0 0
lowerback 2.35747 -0.0788654 0.91254
upperback -0.326805 -0.05872 1.02747
thorax -1.65584 -0.0314325 0.543891
lowerneck -8.44337 -7.14551 0.223919
upperneck 3.7428 -9.65623 1.61791
head 2.72755 -4.73783 0.000992871
lclavicle 1.84031e-14 -2.14084e-14 0
lhumerus -48.9766 -27.8509 108.716
lradius 56.3349 0 0
lwrist 5.12293 0 0
lhand -7.12475 -4.93385 0
lfingers 7.12502 0 0
lthumb 18.749 24.1606 0
rclavicle 1.84031e-14 -2.14084e-14 0
rhumerus -54.0643 3.88719 -85.1054
rradius 62.9236 0 0
rwrist 16.1962 0 0
rhand -28.1462 -25.681 0
rfingers 7.12502 0 0
rthumb -1.52706 -775.649 0
479
root 3.87051 16.3703 -7.00768 5.8218 63.4796 -4.78408
lfemur -36.9397 -4.92498 -22.7756
ltibia 47.9896 0 0
lfoot -20.5533 -0.153897 0
ltoes 17.368 0 0
rfemur -28.3932 1.56023 9.45315
rtibia 76.2611 0 0
rfoot 22.737 13.2484 0
rtoes -23.1957 0 0
lowerback 2.43271 -0.131607 0.782041
upperback -0.319887 -0.134279 0.941612
thorax -1.6904 -0.0685221 0.532386
lowerneck -8.45507 -7.2556 0.124422
upperneck 3.90607 -9.79924 1.6584
head 2.79494 -4.80683 0.0174209
lclavicle 1.54679e-14 -1.87638e-14 0
lhumerus -49.0223 -28.1586 109.025
lradius 56.33 0 0
lwrist 5.09248 0 0
lhand -6.02158 -4.34891 0
lfingers 7.12502 0 0
lthumb 19.8085 24.6247 0
rclavicle 1.54679e-14 -1.87638e-14 0
rhumerus -53.5229 4.68061 -85.8607
rradius 63.3005 0 0
rwrist 16.8542 0 0
rhand -27.4354 -25.4454 0
rfingers 7.12502 0 0
rthumb -0.840629 -775.412 0
480
root 3.94157 16.385 -6.95776 6.05225 64.6516 -4.35616
lfemur -36.2578 -5.72427 -22.9423
ltibia 47.5873 0 0
lfoot -20.6773 -0.561206 0
ltoes 17.6026 0 0
rfemur -30.5632 1.16845 9.61248
rtibia 77.6506 0 0
rfoot 21.9191 11.5997 0
rtoes -22.0202 0 0
lowerback 2.50796 -0.184348 0.651541
upperback -0.312969 -0.209837 0.855753
thorax -1.72497 -0.105612 0.520882
lowerneck -8.46677 -7.36568 0.0249243
upperneck 4.06934 -9.94225 1.6989
head 2.86232 -4.87582 0.033849
lclavicle 1.25328e-14 -1.61193e-14 0
lhumerus -49.0679 -28.4664 109.334
lradius 56.3251 0 0
lwrist 5.06203 0 0
lhand -4.91841 -3.76397 0
lfingers 7.12502 0 0
lthumb 20.868 25.0888 0
rclavicle 1.25328e-14 -1.61193e-14 0
rhumerus -52.9815 5.47403 -86.6161
rradius 63.6774 0 0
rwrist 17.5123 0 0
rhand -26.7247 -25.2097 0
rfingers 7.12502 0 0
rthumb -0.154193 -775.176 0
481
root 4.01262 16.3997 -6.90785 6.2827 65.8236 -3.92825
lfemur -35.5758 -6.52356 -23.109
ltibia 47.1849 0 0
lfoot -20.8013 -0.968514 0
ltoes 17.8371 0 0
rfemur -32.7333 0.776666 9.77181
rtibia 79.0402 0 0
rfoot 21.1013 9.95104 0
rtoes -20.8448 0 0
lowerback 2.58321 -0.23709 0.521041
upperback -0.306051 -0.285396 0.769895
thorax -1.75953 -0.142701 0.509378
lowerneck -8.47847 -7.47576 -0.0745733
upperneck 4.23261 -10.0853 1.73939
head 2.92971 -4.94481 0.0502771
lclavicle 9.59758e-15 -1.34747e-14 0
lhumerus -49.1136 -28.7741 109.644
lradius 56.3203 0 0
lwrist 5.03158 0 0
lhand -3.81524 -3.17904 0
lfingers 7.12502 0 0
lthumb 21.9274 25.5529 0
rclavicle 9.59758e-15 -1.34747e-14 0
rhumerus -52.4401 6.26745 -87.3715
rradius 64.0543 0 0
rwrist 18.1703 0 0
rhand -26.014 -24.974 0
rfingers 7.12502 0 0
rthumb 0.532243 -774.94 0
482
root 4.08368 16.4144 -6.85793 6.51315 66.9956 -3.50033
lfemur -34.8939 -7.32285 -23.2757
ltibia 46.7826 0 0
lfoot -20.9253 -1.37582 0
ltoes 18.0717 0 0
rfemur -34.9033 0.384882 9.93114
rtibia 80.4297 0 0
rfoot 20.2834 8.30237 0
rtoes -19.6693 0 0
lowerback 2.65846 -0.289831 0.390541
upperback -0.299133 -0.360955 0.684036
thorax -1.7941 -0.179791 0.497874
lowerneck -8.49017 -7.58584 -0.174071
upperneck 4.39588 -10.2283 1.77989
head 2.99709 -5.0138 0.0667052
lclavicle 6.66239e-15 -1.08302e-14 0
lhumerus -49.1592 -29.0819 109.953
lradius 56.3154 0 0
lwrist 5.00113 0 0
lhand -2.71207 -2.5941 0
lfingers 7.12502 0 0
lthumb 22.9869 26.017 0
rclavicle 6.66239e-15 -1.08302e-14 0
rhumerus -51.8987 7.06087 -88.1269
rradius 64.4312 0 0
rwrist 18.8284 0 0
rhand -25.3033 -24.7383 0
rfingers 7.12502 0 0
rthumb 1.21868 -774.704 0
483
root 4.15473 16.429 -6.80801 6.74359 68.1677 -3.07242
lfemur -34.2119 -8.12213 -23.4424
ltibia 46.3802 0 0
lfoot -21.0494 -1.78313 0
ltoes 18.3063 0 0
rfemur -37.0733 -0.00690143 10.0905
rtibia 81.8193 0 0
rfoot 19.4656 6.65371 0
rtoes -18.4939 0 0
lowerback 2.7337 -0.342573 0.260042
upperback -0.292215 -0.436513 0.598177
thorax -1.82866 -0.21688 0.486369
lowerneck -8.50187 -7.69593 -0.273568
upperneck 4.55915 -10.3713 1.82038
head 3.06448 -5.0828 0.0831332
lclavicle 3.72721e-15 -8.18566e-15 0
lhumerus -49.2049 -29.3896 110.262
lradius 56.3105 0 0
lwrist 4.97068 0 0
lhand -1.60889 -2.00916 0
lfingers 7.12502 0 0
lthumb 24.0464 26.4811 0
rclavicle 3.72721e-15 -8.18566e-15 0
rhumerus -51.3573 7.85429 -88.8822
rradius 64.8081 0 0
rwrist 19.4864 0 0
rhand -24.5925 -24.5027 0
rfingers 7.12502 0 0
rthumb 1.90511 -774.467 0
